<mxfile host="app.diagrams.net" modified="2023-07-04T09:32:32.184Z" agent="Mozilla/5.0 (Windows NT 10.0; Win64; x64; rv:109.0) Gecko/20100101 Firefox/114.0" version="21.5.2" etag="wtMD9jH0EZBwRk51dxRw" type="github">
  <diagram name="Page-1" id="0f-8BSpZFwoCUBRFsA1O">
    <mxGraphModel>
      <root>
        <mxCell id="0" />
        <mxCell id="1" parent="0" />
      </root>
    </mxGraphModel>
  </diagram>
</mxfile>
